<svg width="502" height="128" viewBox="0 0 502 128" fill="none" xmlns="http://www.w3.org/2000/svg">
<path d="M72.25 71.52H29.99L21.93 91.03H0.339966L40.91 0H61.72L102.42 91.03H80.31L72.25 71.52ZM65.62 55.53L51.19 20.68L36.76 55.53H65.63H65.62Z" fill="url(#paint0_linear_26_28)"/>
<path d="M183.19 127.19L131.68 69.5699L115.82 91.0299H93.71L120.63 55.7899L94.6199 21.0699H117.38L132.2 41.4899L168.16 0.319946H189.75L143 55.2599L206.21 127.19H183.19Z" fill="url(#paint1_linear_26_28)"/>
<path d="M242.6 61.77H189.68C191.63 70.48 199.04 75.81 209.71 75.81C217.12 75.81 222.45 73.6 227.26 69.05L238.05 80.75C231.55 88.16 221.8 92.06 209.18 92.06C184.99 92.06 169.26 76.85 169.26 56.04C169.26 35.23 185.25 20.02 206.58 20.02C227.91 20.02 242.99 33.8 242.99 56.3C242.99 57.86 242.73 60.07 242.6 61.76V61.77ZM189.42 49.93H223.88C222.45 41.09 215.82 35.37 206.71 35.37C197.6 35.37 190.85 40.96 189.42 49.93Z" fill="url(#paint2_linear_26_28)"/>
<path d="M296.7 20.03V38.76C295.01 38.63 293.71 38.5 292.15 38.5C280.97 38.5 273.56 44.61 273.56 58V91.03H253.27V21.07H272.65V30.3C277.59 23.54 285.91 20.03 296.71 20.03H296.7Z" fill="url(#paint3_linear_26_28)"/>
<path d="M367.05 51.1V91.02H348.06V82.31C344.29 88.68 337.01 92.06 326.73 92.06C310.35 92.06 300.59 82.96 300.59 70.86C300.59 58.76 309.3 49.92 330.63 49.92H346.75C346.75 41.21 341.55 36.14 330.63 36.14C323.22 36.14 315.55 38.61 310.47 42.64L303.19 28.47C310.86 23.01 322.18 20.02 333.36 20.02C354.69 20.02 367.04 29.9 367.04 51.1H367.05ZM346.77 68.92V61.77H332.86C323.37 61.77 320.38 65.28 320.38 69.96C320.38 75.03 324.67 78.41 331.82 78.41C338.58 78.41 344.43 75.29 346.77 68.92Z" fill="url(#paint4_linear_26_28)"/>
<path d="M427.26 87.64C423.1 90.63 416.99 92.06 410.75 92.06C394.24 92.06 384.61 83.61 384.61 66.96V38.22H373.82V22.62H384.61V5.58997H404.9V22.63H422.32V38.23H404.9V66.71C404.9 72.69 408.15 75.94 413.61 75.94C416.6 75.94 419.59 75.03 421.8 73.34L427.26 87.64Z" fill="url(#paint5_linear_26_28)"/>
<path d="M501.38 61.77H448.46C450.41 70.48 457.82 75.81 468.49 75.81C475.9 75.81 481.23 73.6 486.04 69.05L496.83 80.75C490.33 88.16 480.58 92.06 467.96 92.06C443.77 92.06 428.04 76.85 428.04 56.04C428.04 35.23 444.03 20.02 465.36 20.02C486.69 20.02 501.77 33.8 501.77 56.3C501.77 57.86 501.51 60.07 501.38 61.76V61.77ZM448.2 49.93H482.66C481.23 41.09 474.6 35.37 465.49 35.37C456.38 35.37 449.63 40.96 448.2 49.93Z" fill="url(#paint6_linear_26_28)"/>
<defs>
<linearGradient id="paint0_linear_26_28" x1="51.38" y1="0" x2="51.38" y2="91.03" gradientUnits="userSpaceOnUse">
<stop stop-color="#F15A29"/>
<stop offset="1" stop-color="#D23F2A"/>
</linearGradient>
<linearGradient id="paint1_linear_26_28" x1="149.96" y1="0.319946" x2="149.96" y2="127.19" gradientUnits="userSpaceOnUse">
<stop stop-color="#F15A29"/>
<stop offset="1" stop-color="#D23F2A"/>
</linearGradient>
<linearGradient id="paint2_linear_26_28" x1="206.13" y1="20.03" x2="206.13" y2="92.07" gradientUnits="userSpaceOnUse">
<stop stop-color="#F15A29"/>
<stop offset="1" stop-color="#D23F2A"/>
</linearGradient>
<linearGradient id="paint3_linear_26_28" x1="274.98" y1="20.03" x2="274.98" y2="2.93197e-05" gradientUnits="userSpaceOnUse">
<stop stop-color="#F15A29"/>
<stop offset="1" stop-color="#D23F2A"/>
</linearGradient>
<linearGradient id="paint4_linear_26_28" x1="333.83" y1="20.03" x2="333.83" y2="92.07" gradientUnits="userSpaceOnUse">
<stop stop-color="#F15A29"/>
<stop offset="1" stop-color="#D23F2A"/>
</linearGradient>
<linearGradient id="paint5_linear_26_28" x1="400.54" y1="5.58997" x2="400.54" y2="92.07" gradientUnits="userSpaceOnUse">
<stop stop-color="#F15A29"/>
<stop offset="1" stop-color="#D23F2A"/>
</linearGradient>
<linearGradient id="paint6_linear_26_28" x1="464.91" y1="20.03" x2="464.91" y2="92.07" gradientUnits="userSpaceOnUse">
<stop stop-color="#F15A29"/>
<stop offset="1" stop-color="#D23F2A"/>
</linearGradient>
</defs>
</svg>
